{
    "asset" : {
        "generator" : "Khronos glTF Blender I/O v1.6.16",
        "version" : "2.0"
    },
    "scene" : 0,
    "scenes" : [
        {
            "name" : "Scene",
            "nodes" : [
                3
            ]
        }
    ],
    "nodes" : [
        {
            "name" : "Bone.001",
            "rotation" : [
                2.1308152042820439e-07,
                3.421699190653271e-08,
                -0.19825133681297302,
                0.9801512360572815
            ],
            "scale" : [
                1,
                0.9999998807907104,
                1
            ],
            "translation" : [
                8.727559119847683e-09,
                0.3140955865383148,
                -2.5443116377318366e-14
            ]
        },
        {
            "children" : [
                0
            ],
            "name" : "Bone",
            "rotation" : [
                -1.6146383075010817e-07,
                1.6131599167579225e-08,
                -0.017547769472002983,
                0.9998460412025452
            ],
            "scale" : [
                1,
                0.9999999403953552,
                0.9999998807907104
            ],
            "translation" : [
                0.035820372402668,
                1.1634362223622574e-10,
                -1.4518822342296511e-16
            ]
        },
        {
            "mesh" : 0,
            "name" : "cat1",
            "skin" : 0
        },
        {
            "children" : [
                2,
                1
            ],
            "name" : "Armature",
            "translation" : [
                0.6779427528381348,
                0.03845525532960892,
                0.08374451100826263
            ]
        }
    ],
    "animations" : [
        {
            "channels" : [
                {
                    "sampler" : 0,
                    "target" : {
                        "node" : 1,
                        "path" : "translation"
                    }
                },
                {
                    "sampler" : 1,
                    "target" : {
                        "node" : 1,
                        "path" : "rotation"
                    }
                },
                {
                    "sampler" : 2,
                    "target" : {
                        "node" : 1,
                        "path" : "scale"
                    }
                },
                {
                    "sampler" : 3,
                    "target" : {
                        "node" : 0,
                        "path" : "translation"
                    }
                },
                {
                    "sampler" : 4,
                    "target" : {
                        "node" : 0,
                        "path" : "rotation"
                    }
                },
                {
                    "sampler" : 5,
                    "target" : {
                        "node" : 0,
                        "path" : "scale"
                    }
                }
            ],
            "name" : "Tail",
            "samplers" : [
                {
                    "input" : 7,
                    "interpolation" : "LINEAR",
                    "output" : 8
                },
                {
                    "input" : 7,
                    "interpolation" : "LINEAR",
                    "output" : 9
                },
                {
                    "input" : 7,
                    "interpolation" : "LINEAR",
                    "output" : 10
                },
                {
                    "input" : 7,
                    "interpolation" : "LINEAR",
                    "output" : 11
                },
                {
                    "input" : 7,
                    "interpolation" : "LINEAR",
                    "output" : 12
                },
                {
                    "input" : 7,
                    "interpolation" : "LINEAR",
                    "output" : 13
                }
            ]
        }
    ],
    "materials" : [
        {
            "doubleSided" : true,
            "emissiveFactor" : [
                1,
                1,
                1
            ],
            "emissiveTexture" : {
                "index" : 0
            },
            "name" : "Cat",
            "pbrMetallicRoughness" : {}
        }
    ],
    "meshes" : [
        {
            "name" : "cat1",
            "primitives" : [
                {
                    "attributes" : {
                        "POSITION" : 0,
                        "NORMAL" : 1,
                        "TEXCOORD_0" : 2,
                        "JOINTS_0" : 3,
                        "WEIGHTS_0" : 4
                    },
                    "indices" : 5,
                    "material" : 0
                }
            ]
        }
    ],
    "textures" : [
        {
            "sampler" : 0,
            "source" : 0
        }
    ],
    "images" : [
        {
            "mimeType" : "image/jpeg",
            "name" : "cat1",
            "uri" : "cat1.jpg"
        }
    ],
    "skins" : [
        {
            "inverseBindMatrices" : 6,
            "joints" : [
                1,
                0
            ],
            "name" : "Armature"
        }
    ],
    "accessors" : [
        {
            "bufferView" : 0,
            "componentType" : 5126,
            "count" : 3313,
            "max" : [
                0.9860085844993591,
                0.7866286635398865,
                0.21779978275299072
            ],
            "min" : [
                -1.0891562700271606,
                -0.7399126887321472,
                -0.06162254512310028
            ],
            "type" : "VEC3"
        },
        {
            "bufferView" : 1,
            "componentType" : 5126,
            "count" : 3313,
            "type" : "VEC3"
        },
        {
            "bufferView" : 2,
            "componentType" : 5126,
            "count" : 3313,
            "type" : "VEC2"
        },
        {
            "bufferView" : 3,
            "componentType" : 5121,
            "count" : 3313,
            "type" : "VEC4"
        },
        {
            "bufferView" : 4,
            "componentType" : 5126,
            "count" : 3313,
            "type" : "VEC4"
        },
        {
            "bufferView" : 5,
            "componentType" : 5123,
            "count" : 12528,
            "type" : "SCALAR"
        },
        {
            "bufferView" : 6,
            "componentType" : 5126,
            "count" : 2,
            "type" : "MAT4"
        },
        {
            "bufferView" : 7,
            "componentType" : 5126,
            "count" : 40,
            "max" : [
                1.6666666666666667
            ],
            "min" : [
                0.041666666666666664
            ],
            "type" : "SCALAR"
        },
        {
            "bufferView" : 8,
            "componentType" : 5126,
            "count" : 40,
            "type" : "VEC3"
        },
        {
            "bufferView" : 9,
            "componentType" : 5126,
            "count" : 40,
            "type" : "VEC4"
        },
        {
            "bufferView" : 10,
            "componentType" : 5126,
            "count" : 40,
            "type" : "VEC3"
        },
        {
            "bufferView" : 11,
            "componentType" : 5126,
            "count" : 40,
            "type" : "VEC3"
        },
        {
            "bufferView" : 12,
            "componentType" : 5126,
            "count" : 40,
            "type" : "VEC4"
        },
        {
            "bufferView" : 13,
            "componentType" : 5126,
            "count" : 40,
            "type" : "VEC3"
        }
    ],
    "bufferViews" : [
        {
            "buffer" : 0,
            "byteLength" : 39756,
            "byteOffset" : 0
        },
        {
            "buffer" : 0,
            "byteLength" : 39756,
            "byteOffset" : 39756
        },
        {
            "buffer" : 0,
            "byteLength" : 26504,
            "byteOffset" : 79512
        },
        {
            "buffer" : 0,
            "byteLength" : 13252,
            "byteOffset" : 106016
        },
        {
            "buffer" : 0,
            "byteLength" : 53008,
            "byteOffset" : 119268
        },
        {
            "buffer" : 0,
            "byteLength" : 25056,
            "byteOffset" : 172276
        },
        {
            "buffer" : 0,
            "byteLength" : 128,
            "byteOffset" : 197332
        },
        {
            "buffer" : 0,
            "byteLength" : 160,
            "byteOffset" : 197460
        },
        {
            "buffer" : 0,
            "byteLength" : 480,
            "byteOffset" : 197620
        },
        {
            "buffer" : 0,
            "byteLength" : 640,
            "byteOffset" : 198100
        },
        {
            "buffer" : 0,
            "byteLength" : 480,
            "byteOffset" : 198740
        },
        {
            "buffer" : 0,
            "byteLength" : 480,
            "byteOffset" : 199220
        },
        {
            "buffer" : 0,
            "byteLength" : 640,
            "byteOffset" : 199700
        },
        {
            "buffer" : 0,
            "byteLength" : 480,
            "byteOffset" : 200340
        }
    ],
    "samplers" : [
        {
            "magFilter" : 9729,
            "minFilter" : 9987
        }
    ],
    "buffers" : [
        {
            "byteLength" : 200820,
            "uri" : "01.bin"
        }
    ]
}
